<svg width="37" height="40" viewBox="0 0 37 40" fill="none" xmlns="http://www.w3.org/2000/svg">
<rect width="37" height="40" rx="4" fill="#F8DC3E"/>
<path d="M15.1514 20.2727H18.6471V31.9361C18.6471 33.0142 18.4048 33.9508 17.9202 34.7457C17.441 35.5407 16.774 36.1533 15.9191 36.5835C15.0642 37.0136 14.0705 37.2287 12.9379 37.2287C11.9306 37.2287 11.0158 37.0517 10.1936 36.6978C9.37687 36.3384 8.7289 35.7939 8.24974 35.0643C7.77057 34.3292 7.53371 33.4063 7.53915 32.2955H11.0594C11.0703 32.7365 11.1601 33.1149 11.3289 33.4308C11.5032 33.7411 11.74 33.9807 12.0395 34.1495C12.3444 34.3129 12.7038 34.3945 13.1176 34.3945C13.5532 34.3945 13.9208 34.302 14.2203 34.1168C14.5252 33.9263 14.7566 33.6486 14.9145 33.2837C15.0724 32.9189 15.1514 32.4697 15.1514 31.9361V20.2727Z" fill="white"/>
<path d="M30.6453 25.0835C30.58 24.4246 30.2996 23.9128 29.8041 23.5479C29.3086 23.1831 28.6361 23.0007 27.7867 23.0007C27.2095 23.0007 26.7222 23.0824 26.3247 23.2457C25.9272 23.4036 25.6223 23.6242 25.4099 23.9073C25.203 24.1905 25.0995 24.5117 25.0995 24.8711C25.0886 25.1706 25.1513 25.4319 25.2874 25.6552C25.429 25.8784 25.6223 26.0717 25.8673 26.2351C26.1123 26.393 26.3955 26.5318 26.7167 26.6516C27.038 26.766 27.381 26.864 27.7458 26.9457L29.2487 27.305C29.9783 27.4684 30.6481 27.6862 31.2579 27.9585C31.8678 28.2307 32.3959 28.5656 32.8424 28.9631C33.2889 29.3606 33.6347 29.8288 33.8797 30.3679C34.1302 30.907 34.2581 31.525 34.2636 32.222C34.2581 33.2456 33.9968 34.1332 33.4795 34.8846C32.9677 35.6306 32.2271 36.2105 31.2579 36.6243C30.2941 37.0327 29.1316 37.2369 27.7703 37.2369C26.42 37.2369 25.2438 37.03 24.2419 36.6161C23.2455 36.2023 22.4668 35.5897 21.906 34.7784C21.3506 33.9617 21.0593 32.9516 21.0321 31.7482H24.4543C24.4924 32.3091 24.653 32.7773 24.9362 33.1531C25.2248 33.5233 25.6086 33.8037 26.0878 33.9943C26.5724 34.1795 27.1196 34.272 27.7295 34.272C28.3285 34.272 28.8485 34.1849 29.2895 34.0107C29.736 33.8364 30.0818 33.5941 30.3268 33.2837C30.5718 32.9734 30.6943 32.6167 30.6943 32.2138C30.6943 31.8381 30.5827 31.5223 30.3595 31.2663C30.1417 31.0104 29.8204 30.7926 29.3957 30.6129C28.9764 30.4332 28.4619 30.2699 27.852 30.1229L26.0306 29.6655C24.6204 29.3224 23.5068 28.7861 22.6901 28.0565C21.8733 27.3268 21.4677 26.344 21.4731 25.108C21.4677 24.0952 21.7372 23.2103 22.2817 22.4535C22.8316 21.6966 23.5858 21.1058 24.5441 20.6811C25.5025 20.2564 26.5915 20.044 27.8112 20.044C29.0526 20.044 30.1362 20.2564 31.0619 20.6811C31.993 21.1058 32.7172 21.6966 33.2345 22.4535C33.7517 23.2103 34.0186 24.087 34.0349 25.0835H30.6453Z" fill="white"/>
</svg>
