<svg width="435" height="435" viewBox="0 0 435 435" fill="none" xmlns="http://www.w3.org/2000/svg">
<rect width="435" height="435" rx="35" fill="white"/>
<path d="M202.479 149.294C217.835 152.545 230.17 160.173 239.484 172.177C248.798 183.931 253.455 197.435 253.455 212.691C253.455 234.698 245.652 252.204 230.044 265.209C214.688 277.963 193.165 284.34 165.475 284.34H42V21H161.321C188.257 21 209.276 27.1271 224.38 39.3813C239.736 51.6355 247.414 68.2662 247.414 89.2733C247.414 104.779 243.26 117.658 234.953 127.912C226.897 138.165 216.073 145.293 202.479 149.294ZM106.569 127.536H148.86C159.433 127.536 167.489 125.286 173.027 120.784C178.817 116.032 181.711 109.155 181.711 100.152C181.711 91.149 178.817 84.2716 173.027 79.52C167.489 74.7684 159.433 72.3926 148.86 72.3926H106.569V127.536ZM154.147 232.572C164.971 232.572 173.278 230.197 179.068 225.445C185.11 220.443 188.131 213.316 188.131 204.063C188.131 194.809 184.984 187.557 178.691 182.305C172.649 177.053 164.216 174.427 153.392 174.427H106.569V232.572H154.147Z" fill="#252526"/>
<path d="M395.404 243.812C395.404 259.068 391.886 273.072 384.85 285.827C377.814 298.331 367.008 308.459 352.433 316.212C337.857 323.965 319.764 327.841 298.153 327.841H258.196V422.373H193.739V159.033H298.153C319.261 159.033 337.104 162.66 351.679 169.912C366.254 177.165 377.185 187.168 384.473 199.922C391.761 212.677 395.404 227.307 395.404 243.812ZM293.252 276.824C305.566 276.824 314.738 273.948 320.769 268.196C326.8 262.444 329.816 254.316 329.816 243.812C329.816 233.309 326.8 225.181 320.769 219.429C314.738 213.677 305.566 210.801 293.252 210.801H258.196V276.824H293.252Z" fill="#252526"/>
<path d="M172.399 81.663L127.997 127.662L266.727 260.164L311.129 214.165L172.399 81.663Z" fill="white"/>
</svg>
