<svg width="37" height="40" viewBox="0 0 37 40" fill="none" xmlns="http://www.w3.org/2000/svg">
<rect width="37" height="40" rx="4" fill="#3178C6"/>
<path d="M6 23.1445V20.2287H19.7379V23.1445H14.6168V36.956H11.1211V23.1445H6Z" fill="white"/>
<path d="M31.0746 25.0394C31.0092 24.3806 30.7288 23.8687 30.2333 23.5039C29.7378 23.1391 29.0653 22.9567 28.2159 22.9567C27.6387 22.9567 27.1514 23.0384 26.7539 23.2017C26.3564 23.3596 26.0515 23.5801 25.8391 23.8633C25.6322 24.1464 25.5288 24.4677 25.5288 24.8271C25.5179 25.1265 25.5805 25.3879 25.7166 25.6112C25.8582 25.8344 26.0515 26.0277 26.2965 26.1911C26.5415 26.349 26.8247 26.4878 27.146 26.6076C27.4672 26.7219 27.8103 26.82 28.1751 26.9016L29.6779 27.261C30.4076 27.4244 31.0773 27.6422 31.6871 27.9144C32.297 28.1867 32.8252 28.5215 33.2717 28.919C33.7182 29.3165 34.0639 29.7848 34.309 30.3239C34.5594 30.8629 34.6874 31.4809 34.6928 32.1779C34.6874 33.2016 34.426 34.0891 33.9087 34.8406C33.3969 35.5865 32.6564 36.1664 31.6871 36.5803C30.7234 36.9886 29.5608 37.1928 28.1996 37.1928C26.8492 37.1928 25.6731 36.9859 24.6712 36.5721C23.6747 36.1583 22.8961 35.5457 22.3352 34.7344C21.7798 33.9176 21.4885 32.9076 21.4613 31.7042H24.8835C24.9216 32.265 25.0823 32.7333 25.3654 33.109C25.654 33.4793 26.0379 33.7597 26.517 33.9503C27.0017 34.1354 27.5489 34.228 28.1587 34.228C28.7577 34.228 29.2777 34.1409 29.7188 33.9666C30.1652 33.7924 30.511 33.5501 30.756 33.2397C31.0011 32.9293 31.1236 32.5727 31.1236 32.1697C31.1236 31.794 31.012 31.4782 30.7887 31.2223C30.5709 30.9664 30.2496 30.7486 29.8249 30.5689C29.4057 30.3892 28.8911 30.2259 28.2812 30.0788L26.4599 29.6214C25.0496 29.2784 23.9361 28.7421 23.1193 28.0124C22.3026 27.2828 21.8969 26.3 21.9023 25.0639C21.8969 24.0511 22.1664 23.1663 22.7109 22.4094C23.2609 21.6526 24.015 21.0618 24.9734 20.6371C25.9317 20.2124 27.0207 20 28.2404 20C29.4819 20 30.5655 20.2124 31.4911 20.6371C32.4222 21.0618 33.1464 21.6526 33.6637 22.4094C34.181 23.1663 34.4478 24.043 34.4641 25.0394H31.0746Z" fill="white"/>
</svg>
